<svg height="32" viewBox="0 0 32 32.000001" width="32" xmlns="http://www.w3.org/2000/svg"><g transform="translate(0 -1020.3622)"><path d="m0 1020.3622h32v32h-32z" fill="#ffe277"/><path d="m16.184762 1043.2576q.978785 0 1.563337-.6253.584553-.6253.720495-1.7401l3.765604.2175q-.421421 2.5558-1.984759 3.8472-1.549743 1.2779-4.119054 1.2779-3.072298 0-4.83955-1.8081-1.7672509-1.808-2.1614838-5.3969h-1.753657l.5437696-2.0255h1.0467565l-.027188-.6933.027188-.7613h-1.5905261l.5437696-2.0255h1.1826989q.8564371-7.0011 7.0282223-7.0011 2.474151 0 4.023895 1.2779 1.549743 1.2778 1.943976 3.6025l-3.806387.2175q-.135943-1.006-.706901-1.5634-.570958-.5573-1.576931-.5573-1.34583 0-2.066325.9652-.7069.9651-.910814 3.0587h4.445316l-.394232 2.0255h-4.119055l-.02719.7613.04078.6933h4.622042l-.407828 2.0255h-4.132648q.380638 4.2278 3.126675 4.2278z" fill="#8b6000" transform="translate(1.195054 -.01765)"/></g></svg>